<svg id="Capa_1" enable-background="new 0 0 512 512" height="512" viewBox="0 0 512 512" width="512" xmlns="http://www.w3.org/2000/svg"><g id="XMLID_1657_"><path id="XMLID_868_" d="m309.896 313.406c42.797-28.483 71.412-81.591 71.412-140.72 0-89.849-66.074-162.686-147.579-162.686s-147.58 72.837-147.58 162.687c0 58.964 28.455 111.947 71.054 140.481z" fill="#ffd88e"/><path id="XMLID_1481_" d="m10.108 502v-53.161c0-67.895 51.487-124.724 119.052-131.404l45.548-4.504c8.927-.883 15.73-8.391 15.73-17.362v-15.985h86.366v15.985c0 8.97 6.803 16.479 15.73 17.362l45.548 4.504c67.565 6.681 119.052 63.51 119.052 131.404v53.161z" fill="#ff9eb1"/><path id="XMLID_1599_" d="m233.022 353.583 47.394-47.394c-2.269-2.953-3.612-6.641-3.612-10.62v-15.985h-86.366v15.985c0 4.283-1.563 8.221-4.155 11.275z" fill="#fff"/><path id="XMLID_1480_" d="m119.289 321.717 74.676 74.677 39.057-42.811-46.73-46.729z" fill="#ffbdbc"/><path id="XMLID_1479_" d="m346.754 321.717-74.676 74.677-39.056-42.811 46.729-46.729z" fill="#ffbdbc"/><g id="XMLID_2086_"><g id="XMLID_182_" fill="#fff"><path id="XMLID_184_" d="m317.748 140.558v65.567c0 46.392-37.608 84-84 84-46.392 0-84-37.608-84-84v-65.567z"/><path id="XMLID_183_" d="m317.748 165.038v41.086c0 46.392-37.608 84-84 84-46.392 0-84-37.608-84-84v-41.086c0-14.691 11.91-26.601 26.601-26.601h114.798c14.691 0 26.601 11.91 26.601 26.601z"/></g></g><path id="XMLID_1414_" d="m254.69 224.781c0 11.577-9.385 20.962-20.962 20.962s-20.962-9.385-20.962-20.962z" fill="#ff9eb1"/><g fill="#fff"><path id="XMLID_953_" d="m321.461 420.842h80.318v32.487h-80.318z"/><circle id="XMLID_1416_" cx="233.022" cy="415.667" r="10"/><circle id="XMLID_1597_" cx="233.022" cy="455.505" r="10"/></g><g id="XMLID_768_" fill="#ff5d7d"><path id="XMLID_790_" d="m339.066 307.483-4.879-.482c35.678-32.665 57.121-82.126 57.121-134.314 0-95.22-70.69-172.687-157.579-172.687s-157.579 77.467-157.579 172.687c0 52.147 21.442 101.63 57.1 134.295l-5.074.502c-35.152 3.476-67.573 19.807-91.29 45.984-23.717 26.177-36.778 60.048-36.778 95.371v53.161c0 5.522 4.478 10 10 10h447.026c5.522 0 10-4.478 10-10v-53.161c0-35.323-13.062-69.194-36.778-95.371-23.717-26.178-56.138-42.509-91.29-45.985zm-106.044 31.957-34.294-34.294c1.104-2.986 1.71-6.212 1.71-9.578v-1.546c10.359 3.938 21.585 6.103 33.31 6.103 11.629 0 22.768-2.128 33.057-6.006v1.45c0 3.036.491 5.958 1.396 8.693zm-57.329-16.558c3.476-.344 6.739-1.318 9.686-2.799l33.818 33.817-25.563 28.021-55.338-55.34zm-15.946-158.787c0-7.464 6.072-13.536 13.536-13.536h15.672c10.972 0 21.385-3.985 29.487-10.983 7.912 6.834 18.207 10.983 29.459 10.983h46.312c7.463 0 13.535 6.072 13.535 13.536v42.03c0 40.804-33.196 74-74 74s-74-33.196-74-74v-42.03zm121.332 155.573c3.149 1.713 6.682 2.839 10.47 3.214l36.307 3.59-55.447 55.448-25.562-28.021zm-184.929-146.981c0-84.192 61.717-152.687 137.579-152.687s137.579 68.495 137.579 152.687c0 53.602-25.122 103.813-65.649 131.494l-12.141-1.201c-3.828-.379-6.714-3.564-6.714-7.411v-11.891c24.705-16.955 40.943-45.391 40.943-77.552v-42.03c0-18.492-15.044-33.536-33.535-33.536h-46.312c-13.858 0-25.134-11.275-25.134-25.134 0-5.522-4.478-10-10-10s-10 4.478-10 10c0 6.386 1.341 12.462 3.744 17.974-4.653 4.544-10.921 7.16-17.555 7.16h-15.672c-18.492 0-33.536 15.044-33.536 33.536v42.03c0 32.051 16.128 60.401 40.69 77.376v12.067c0 1.857-.677 3.556-1.804 4.863-.046.055-.094.108-.139.164-1.199 1.312-2.868 2.195-4.771 2.384l-11.957 1.182c-40.499-27.673-65.616-77.916-65.616-131.475zm350.984 319.313h-427.026v-43.161c0-57.358 39.169-105.749 93.485-118.677l73.302 73.303c1.878 1.877 4.422 2.929 7.071 2.929.076 0 .152-.001.229-.003 2.73-.062 5.317-1.239 7.158-3.257l31.669-34.713 31.667 34.712c1.841 2.019 4.428 3.195 7.158 3.258.077.002.153.003.229.003 2.649 0 5.193-1.052 7.071-2.929l73.528-73.528c54.82 12.579 94.458 61.202 94.458 118.902v43.161z"/><path id="XMLID_873_" d="m484.606 216.056c-2.255-.797-4.556-1.627-6.856-2.489v-38.695c5.276 1.594 8.308 4.174 8.536 4.374 1.793 1.702 4.18 2.723 6.847 2.723 5.523 0 10-4.477 10-10 0-2.957-1.291-5.606-3.332-7.437l.013-.015c-.499-.459-8.671-7.81-22.065-10.148v-7.354c0-5.522-4.478-10-10-10s-10 4.478-10 10v8.077c-1.002.241-2.013.503-3.043.813-12.937 3.897-22.601 14.954-25.221 28.856-2.396 12.718 1.706 25.003 10.706 32.062 4.503 3.532 10.05 6.769 17.558 10.158v50.085c-6.062-.617-10.232-2.342-17.079-6.822-4.621-3.022-10.818-1.728-13.843 2.894-3.023 4.621-1.729 10.819 2.894 13.843 10.946 7.161 18.552 9.481 28.028 10.15v8.239c0 5.522 4.478 10 10 10s10-4.478 10-10v-9.146c18.812-4.314 30.889-20.176 33.52-35.822 3.367-20.022-7.099-37.43-26.663-44.346zm-26.857-11.492c-1.928-1.125-3.691-2.283-5.214-3.477-3.056-2.397-4.389-7.352-3.396-12.622.829-4.395 3.518-9.583 8.609-12.281v28.38zm33.797 52.524c-1.192 7.092-5.876 14.596-13.797 18.164v-40.408c.065.023.126.045.191.068 15.182 5.367 14.253 18.331 13.606 22.176z"/><path id="XMLID_875_" d="m205.966 196.5c2.641 0 5.221-1.07 7.08-2.931 1.86-1.859 2.92-4.439 2.92-7.069s-1.06-5.21-2.92-7.07c-1.87-1.86-4.439-2.93-7.08-2.93-2.63 0-5.21 1.069-7.069 2.93-1.86 1.86-2.92 4.44-2.92 7.07s1.06 5.21 2.92 7.069c1.859 1.861 4.439 2.931 7.069 2.931z"/><path id="XMLID_876_" d="m261.487 196.5c2.64 0 5.21-1.07 7.069-2.931 1.86-1.859 2.931-4.439 2.931-7.069s-1.07-5.21-2.931-7.07c-1.859-1.86-4.439-2.93-7.069-2.93s-5.21 1.069-7.07 2.93-2.93 4.44-2.93 7.07 1.069 5.21 2.93 7.069c1.86 1.861 4.429 2.931 7.07 2.931z"/></g></g></svg>