<svg id="Capa_1" enable-background="new 0 0 512 512" height="512" viewBox="0 0 512 512" width="512" xmlns="http://www.w3.org/2000/svg"><g id="XMLID_31_"><path id="XMLID_37_" d="m350 372.997h152v-119.014l-86.073-86.057c-1.875-1.875-4.418-2.928-7.07-2.928h-58.857z" fill="#fff7bf"/><path id="XMLID_38_" d="m502 253.983-86.073-86.057c-1.875-1.875-4.418-2.928-7.07-2.928h-9.331v102.502h102.474z" fill="#fff"/><path id="XMLID_2220_" d="m10 372.997h492v48h-492z" fill="#ffd88e"/><path id="XMLID_2216_" d="m193.416 104.213h126.584c16.569 0 30 13.431 30 30v238.784h-340v-238.784c0-16.569 13.431-30 30-30h3.917z" fill="#fff7bf"/><circle id="XMLID_2212_" cx="109.846" cy="427.003" fill="#fff" r="48"/><circle id="XMLID_2210_" cx="109.846" cy="427.003" fill="#ff9eb1" r="20"/><circle id="XMLID_2209_" cx="356.194" cy="427.003" fill="#fff" r="48"/><circle id="XMLID_2207_" cx="356.194" cy="427.003" fill="#ff9eb1" r="20"/><circle id="XMLID_2206_" cx="180" cy="104.997" fill="#fff" r="68"/><g id="XMLID_1106_" fill="#ffb989"><path id="XMLID_1125_" d="m509.07 246.911-86.073-86.058c-3.778-3.776-8.8-5.856-14.14-5.856h-48.857v-20.784c0-22.056-17.944-40-40-40h-62.763c-5.27-37.922-37.888-67.216-77.237-67.216s-71.967 29.294-77.237 67.216h-62.763c-22.056 0-40 17.944-40 40v286.784c0 5.523 4.477 10 10 10h41.999c2.061 30.124 27.21 54.006 57.847 54.006s55.786-23.882 57.847-54.006h130.655c2.061 30.124 27.21 54.006 57.847 54.006s55.786-23.882 57.847-54.006h87.958c5.522 0 10-4.477 10-10v-167.015c0-2.652-1.054-5.196-2.93-7.071zm-17.695 10.589h-81.849v-81.833zm-101.849-82.503v92.503c0 5.523 4.478 10 10 10h92.474v85.497h-132v-188zm-89.068 236h-134.876c-3.172-11.029-9.531-20.715-18.018-28h170.912c-8.487 7.285-14.845 16.971-18.018 28zm-120.458-364c31.981 0 58 26.019 58 58s-26.019 58-58 58-58-26.019-58-58 26.019-58 58-58zm-160 87.216c0-11.028 8.972-20 20-20h62.563c4.577 38.679 37.547 68.784 77.437 68.784s72.86-30.105 77.437-68.784h62.563c11.028 0 20 8.972 20 20v228.784h-320zm0 248.784h52.127c-8.487 7.285-14.845 16.971-18.018 28h-34.109zm89.846 82.006c-20.953 0-38-17.047-38-38s17.047-38 38-38 38 17.047 38 38-17.047 38-38 38zm246.348 0c-20.953 0-38-17.047-38-38s17.047-38 38-38 38 17.047 38 38-17.047 38-38 38zm135.806-54.006h-80.07c-3.172-11.029-9.531-20.715-18.018-28h98.088z"/><path id="XMLID_1256_" d="m178.667 116.331h14.75c5.523 0 10-4.477 10-10s-4.477-10-10-10h-4.75v-16.336c0-5.523-4.477-10-10-10s-10 4.477-10 10v26.335c0 5.524 4.477 10.001 10 10.001z"/></g></g></svg>