<svg id="Capa_1" enable-background="new 0 0 512 512" height="512" viewBox="0 0 512 512" width="512" xmlns="http://www.w3.org/2000/svg"><g id="XMLID_2005_"><path id="XMLID_1070_" d="m239 502 .131-.043c126.489-41.958 211.869-160.233 211.869-293.5v-118.322l-.651-.114c-74.86-13.126-146.567-40.276-211.349-80.021-64.335 39.664-135.621 66.743-210.065 79.795l-1.935.34v118.322c0 133.317 85.444 251.626 212 293.543z" fill="#ccf5fc"/><g id="XMLID_1066_"><path id="XMLID_1067_" d="m74.999 129.294v79.163c0 107.457 65.266 202.955 163.998 242.464 98.738-39.516 164.002-135.023 164.002-242.464v-79.23c-57.366-13.687-112.286-35-163.945-63.634-51.656 28.745-106.605 50.08-164.055 63.701z" fill="#98eaf9"/></g><g id="XMLID_1967_"><g id="XMLID_1970_"><g id="XMLID_110_"><path id="XMLID_111_" d="m191.286 303.838c-4.646 0-9.293-1.772-12.838-5.317-7.089-7.09-7.089-18.584 0-25.674l95.684-95.684c7.09-7.09 18.585-7.09 25.675 0 7.089 7.09 7.089 18.584 0 25.674l-95.684 95.684c-3.545 3.545-8.191 5.317-12.837 5.317z" fill="#fff"/></g></g><g fill="#fff"><circle id="XMLID_1969_" cx="287.387" cy="285.684" r="18.155"/><circle id="XMLID_1968_" cx="190.868" cy="190" r="18.155"/></g></g><circle id="XMLID_1971_" cx="386.194" cy="403.193" fill="#fff" r="98.807"/><path id="XMLID_1283_" d="m444.064 311.094c11.237-33.06 16.936-67.547 16.936-102.637v-118.322c0-4.856-3.489-9.011-8.272-9.85l-.652-.114c-73.936-12.964-143.866-39.44-207.847-78.695-3.215-1.973-7.267-1.968-10.478.011-63.534 39.17-133.026 65.567-206.543 78.458l-1.936.339c-4.783.839-8.272 4.994-8.272 9.851v118.322c0 67.528 20.898 132.158 60.435 186.901 39.537 54.744 94.318 94.903 158.421 116.134 1.021.338 2.083.507 3.144.507 1.064 0 2.128-.17 3.152-.51l.127-.042c23.532-7.806 46.06-18.321 67.084-31.283 19.697 19.662 46.868 31.836 76.831 31.836 59.996 0 108.806-48.811 108.806-108.807 0-38.743-20.359-72.817-50.936-92.099zm-205.065 180.353c-120.969-41.536-201.999-154.836-201.999-282.99v-109.957c71.674-13.34 139.573-39.152 202.013-76.796 62.492 37.5 130.384 63.306 201.987 76.781v109.972c0 31.932-5.045 63.326-14.973 93.48-12.342-4.872-25.781-7.55-39.833-7.55-59.996 0-108.807 48.811-108.807 108.807 0 22.777 7.041 43.939 19.052 61.433-18.102 10.922-37.367 19.924-57.44 26.82zm147.195.553c-48.968 0-88.807-39.838-88.807-88.807s39.839-88.807 88.807-88.807 88.806 39.839 88.806 88.807-39.839 88.807-88.806 88.807z" fill="#80b6ff"/><g id="XMLID_3797_"><path id="XMLID_1965_" d="m375.782 448.72-45.541-45.541 24.69-24.689 20.851 20.851 41.675-41.674 24.689 24.689z" fill="#ff9eb1"/></g></g></svg>