<svg id="Capa_1" enable-background="new 0 0 512 512" height="512" viewBox="0 0 512 512" width="512" xmlns="http://www.w3.org/2000/svg"><g id="XMLID_1058_"><path id="XMLID_1064_" d="m10 118.859h452v230h-452z" fill="#e6f2af"/><g id="XMLID_1760_"><path id="XMLID_1758_" d="m50 163.141h452v230h-452z" fill="#a0e5a5"/><path id="XMLID_781_" d="m502 153.142h-30v-34.283c0-5.523-4.478-10-10-10h-452c-5.523 0-10 4.477-10 10v230c0 5.523 4.477 10 10 10h30v34.283c0 5.523 4.477 10 10 10h452c5.522 0 10-4.477 10-10v-230c0-5.523-4.478-10-10-10zm-482 185.716v-210h432v24.283h-402c-5.523 0-10 4.477-10 10v175.717zm472 44.284h-432v-210h432z" fill="#89df8f"/><path id="XMLID_1756_" d="m436.142 207.424h-320.284c0 14.281-11.577 25.858-25.858 25.858v89.718c14.281 0 25.858 11.577 25.858 25.858h320.283c.001-14.281 11.578-25.858 25.859-25.858v-89.717c-14.281 0-25.858-11.577-25.858-25.859z" fill="#fff"/><g fill="#a0e5a5"><circle id="XMLID_1759_" cx="276" cy="278.141" r="40.667"/><circle id="XMLID_1060_" cx="376.25" cy="278.141" r="14"/><circle id="XMLID_1059_" cx="175.75" cy="278.141" r="14"/></g></g></g></svg>